<?xml version="1.0" encoding="utf-8"?>
<!-- Generator: Adobe Illustrator 15.1.0, SVG Export Plug-In . SVG Version: 6.00 Build 0)  -->
<!DOCTYPE svg PUBLIC "-//W3C//DTD SVG 1.1//EN" "http://www.w3.org/Graphics/SVG/1.1/DTD/svg11.dtd">
<svg version="1.1" id="Layer_1" xmlns="http://www.w3.org/2000/svg" xmlns:xlink="http://www.w3.org/1999/xlink" x="0px" y="0px"
	 width="360px" height="144px" viewBox="0 0 360 144" enable-background="new 0 0 360 144" xml:space="preserve">
<g>
	<g>
		<g>
			
				<linearGradient id="SVGID_1_" gradientUnits="userSpaceOnUse" x1="90.8467" y1="21.7114" x2="90.8467" y2="44.4443" gradientTransform="matrix(0.3173 0.9483 -0.9483 0.3173 131.9121 -27.6641)">
				<stop  offset="0" style="stop-color:#D2D9A8"/>
				<stop  offset="0.2675" style="stop-color:#CFD7A5"/>
				<stop  offset="0.4824" style="stop-color:#C8D19B"/>
				<stop  offset="0.679" style="stop-color:#BBC88C"/>
				<stop  offset="0.8635" style="stop-color:#ABBB78"/>
				<stop  offset="1" style="stop-color:#9BAF65"/>
			</linearGradient>
			<path fill="url(#SVGID_1_)" d="M132.033,75.279L132.033,75.279c1.09,0.139,2.229,0.041,3.344-0.332
				c3.961-1.325,6.099-5.61,4.772-9.572c-1.325-3.962-5.61-6.099-9.572-4.772c-1.113,0.371-2.082,0.979-2.869,1.747v0l-0.009,0.009
				c-0.006,0.006-0.011,0.012-0.018,0.017l-8.411,7.192l0,0c-0.744,0.777-1.043,1.93-0.679,3.021c0.366,1.09,1.299,1.83,2.359,2.002
				l0.001,0.001l11.044,0.682c0.008,0.002,0.016,0.002,0.026,0.004L132.033,75.279z"/>
			<circle fill="#FFFFFF" cx="132.977" cy="67.774" r="6.05"/>
		</g>
		<g>
			
				<linearGradient id="SVGID_2_" gradientUnits="userSpaceOnUse" x1="94.9316" y1="42.2759" x2="117.6909" y2="42.2759" gradientTransform="matrix(0.3173 0.9483 -0.9483 0.3173 131.9121 -27.6641)">
				<stop  offset="0" style="stop-color:#9E9EAC"/>
				<stop  offset="0.0957" style="stop-color:#A6A6B3"/>
				<stop  offset="0.3569" style="stop-color:#B6B7C2"/>
				<stop  offset="0.6433" style="stop-color:#C1C1CB"/>
				<stop  offset="1" style="stop-color:#C4C4CD"/>
			</linearGradient>
			<path fill="url(#SVGID_2_)" d="M119.334,91.604l0.001-0.001c0.204,1.082,0.648,2.134,1.347,3.078
				c2.484,3.357,7.223,4.064,10.58,1.58c3.358-2.484,4.066-7.221,1.583-10.579c-0.701-0.943-1.578-1.678-2.551-2.188l0-0.002
				l-0.009-0.004c-0.008-0.004-0.015-0.008-0.022-0.012l-9.826-6.299h-0.002c-0.968-0.467-2.157-0.397-3.081,0.287
				c-0.925,0.686-1.34,1.801-1.176,2.865l0,0l3.15,11.238c0.001,0.008,0.002,0.018,0.004,0.025L119.334,91.604z"/>
			<circle fill="#FFFFFF" cx="126.763" cy="90.183" r="6.051"/>
		</g>
		<g>
			
				<linearGradient id="SVGID_3_" gradientUnits="userSpaceOnUse" x1="107.2051" y1="71.2397" x2="93.1341" y2="52.567" gradientTransform="matrix(0.3173 0.9483 -0.9483 0.3173 131.9121 -27.6641)">
				<stop  offset="0" style="stop-color:#FAB38B"/>
				<stop  offset="0.2886" style="stop-color:#F5AE86"/>
				<stop  offset="0.5203" style="stop-color:#ECA27B"/>
				<stop  offset="0.7322" style="stop-color:#DD906A"/>
				<stop  offset="0.9313" style="stop-color:#C97854"/>
				<stop  offset="1" style="stop-color:#C16F4C"/>
			</linearGradient>
			<path fill="url(#SVGID_3_)" d="M99.009,83.744L99.009,83.744c-0.964,0.529-1.827,1.277-2.511,2.232
				c-2.426,3.401-1.635,8.125,1.766,10.551s8.123,1.636,10.55-1.766c0.682-0.956,1.108-2.016,1.295-3.1l0,0l0.002-0.012
				c0-0.008,0.002-0.018,0.002-0.025l2.957-11.291l-0.001-0.002c0.145-1.065-0.289-2.174-1.227-2.84
				c-0.936-0.67-2.125-0.72-3.086-0.236l0,0l-9.716,6.472c-0.006,0.003-0.016,0.007-0.022,0.012L99.009,83.744z"/>
			<circle fill="#FFFFFF" cx="102.656" cy="90.37" r="6.051"/>
		</g>
		<g>
			
				<linearGradient id="SVGID_4_" gradientUnits="userSpaceOnUse" x1="74.6841" y1="71.0298" x2="88.7554" y2="52.3565" gradientTransform="matrix(0.3173 0.9483 -0.9483 0.3173 131.9121 -27.6641)">
				<stop  offset="0" style="stop-color:#F4D570"/>
				<stop  offset="0.3567" style="stop-color:#F1D16D"/>
				<stop  offset="0.6431" style="stop-color:#E8C563"/>
				<stop  offset="0.9043" style="stop-color:#D9B354"/>
				<stop  offset="1" style="stop-color:#D2AA4C"/>
			</linearGradient>
			<path fill="url(#SVGID_4_)" d="M100.6,62.58L100.6,62.58c-0.8-0.752-1.779-1.343-2.9-1.698c-3.983-1.255-8.232,0.958-9.488,4.94
				s0.956,8.232,4.938,9.488c1.119,0.354,2.262,0.431,3.35,0.272l0,0l0.011-0.001c0.01-0.002,0.017-0.004,0.025-0.005l11.652-0.679
				h0.001c1.057-0.193,1.979-0.947,2.323-2.045c0.346-1.098,0.027-2.243-0.731-3.008l0,0l-9.154-7.24
				c-0.008-0.005-0.012-0.012-0.019-0.018L100.6,62.58z"/>
			<circle fill="#FFFFFF" cx="95.425" cy="68.097" r="6.051"/>
		</g>
		<g>
			
				<linearGradient id="SVGID_5_" gradientUnits="userSpaceOnUse" x1="64.7637" y1="39.6465" x2="86.4158" y2="48.3945" gradientTransform="matrix(0.3173 0.9483 -0.9483 0.3173 131.9121 -27.6641)">
				<stop  offset="0" style="stop-color:#ACC8D6"/>
				<stop  offset="0.3387" style="stop-color:#A8C5D3"/>
				<stop  offset="0.6106" style="stop-color:#9CBCCB"/>
				<stop  offset="0.8586" style="stop-color:#88ACBE"/>
				<stop  offset="1" style="stop-color:#79A0B3"/>
			</linearGradient>
			<path fill="url(#SVGID_5_)" d="M121.25,57.097L121.25,57.097c0.469-0.995,0.729-2.108,0.717-3.283
				c-0.036-4.176-3.452-7.534-7.628-7.497c-4.178,0.037-7.534,3.452-7.498,7.629c0.011,1.175,0.29,2.283,0.775,3.269h0l0.004,0.011
				c0.004,0.008,0.009,0.016,0.013,0.021l4.245,10.872l0,0c0.51,0.948,1.513,1.59,2.664,1.579c1.151-0.01,2.144-0.668,2.635-1.624
				l0,0l4.057-10.945c0.004-0.007,0.008-0.015,0.012-0.022L121.25,57.097z"/>
			<circle fill="#FFFFFF" cx="114.404" cy="53.88" r="6.051"/>
		</g>
	</g>
	<g>
		<path fill="#76A2B6" stroke="#76A2B6" stroke-width="0.5468" stroke-miterlimit="10" d="M161.543,74.012h-1.789l-3.272-9.437
			h-0.047l-3.272,9.437h-1.789l-3.861-10.914h1.625l3.154,9.438h0.047l3.343-9.438h1.79l3.178,9.438h0.047l3.319-9.438h1.483
			L161.543,74.012z"/>
		<path fill="#76A2B6" stroke="#76A2B6" stroke-width="0.5468" stroke-miterlimit="10" d="M168.867,58.39
			c0.542,0,0.777,0.407,0.777,0.898c0,0.493-0.235,0.899-0.777,0.899s-0.8-0.406-0.8-0.899
			C168.067,58.797,168.326,58.39,168.867,58.39z M168.114,63.098h1.483v10.914h-1.483V63.098z"/>
		<path fill="#76A2B6" stroke="#76A2B6" stroke-width="0.5468" stroke-miterlimit="10" d="M173.929,65.666
			c0-0.834,0-1.69-0.094-2.568h1.436v1.947h0.047c0.495-0.984,1.389-2.204,3.884-2.204c2.966,0,4.096,1.798,4.096,4.194v6.976
			h-1.482v-6.633c0-2.055-0.801-3.381-2.849-3.381c-2.707,0-3.554,2.161-3.554,3.98v6.034h-1.483V65.666z"/>
		<path fill="#76A2B6" stroke="#76A2B6" stroke-width="0.5468" stroke-miterlimit="10" d="M197.119,74.012l-1.483-1.733h-0.047
			c-0.801,1.391-2.024,1.991-3.743,1.991c-3.296,0-4.943-2.483-4.943-5.714c0-3.317,1.412-5.714,4.943-5.714
			c2.354,0,3.531,1.562,3.743,2.097h0.047l0.047-6.334l1.437-1.498V74.012z M192.082,73.113c2.636,0,3.554-2.568,3.554-4.558
			s-0.918-4.558-3.554-4.558c-2.826,0-3.556,2.439-3.556,4.558S189.256,73.113,192.082,73.113z"/>
		<path fill="#76A2B6" stroke="#76A2B6" stroke-width="0.5468" stroke-miterlimit="10" d="M211.223,64.553
			c-0.801-0.321-1.53-0.556-2.33-0.556c-2.896,0-4.521,1.904-4.521,4.558c0,2.482,1.647,4.558,4.354,4.558
			c0.942,0,1.343-0.193,2.237-0.492l0.611,1.263c-1.012,0.321-1.954,0.386-3.083,0.386c-3.861,0-5.744-2.676-5.744-5.714
			c0-3.36,2.377-5.714,5.932-5.714c1.437,0,2.473,0.3,2.896,0.428L211.223,64.553z"/>
		<path fill="#76A2B6" stroke="#76A2B6" stroke-width="0.5468" stroke-miterlimit="10" d="M214.684,58.39l1.484-1.284v7.832h0.047
			c0.635-1.198,1.977-2.097,3.742-2.097c3.225,0,4.096,1.947,4.096,4.644v6.527h-1.482v-6.505c0-1.883-0.4-3.509-2.849-3.509
			c-2.636,0-3.554,2.268-3.554,4.173v5.842h-1.484V58.39z"/>
		<path fill="#76A2B6" stroke="#76A2B6" stroke-width="0.5468" stroke-miterlimit="10" d="M229.117,58.39
			c0.541,0,0.776,0.407,0.776,0.898c0,0.493-0.235,0.899-0.776,0.899s-0.801-0.406-0.801-0.899
			C228.316,58.797,228.576,58.39,229.117,58.39z M228.363,63.098h1.483v10.914h-1.483V63.098z"/>
		<path fill="#76A2B6" stroke="#76A2B6" stroke-width="0.5468" stroke-miterlimit="10" d="M248.68,74.012v-7.254
			c0-1.541-0.636-2.76-2.543-2.76c-1.623,0-3.225,1.262-3.225,3.98v6.034h-1.482v-7.254c0-1.541-0.637-2.76-2.543-2.76
			c-1.624,0-3.225,1.262-3.225,3.98v6.034h-1.483v-8.346c0-0.834,0-1.69-0.095-2.568h1.437v1.84l0.047,0.021
			c0.471-0.749,1.177-2.119,3.743-2.119c1.059,0,2.802,0.407,3.178,2.311h0.047c0.542-1.284,1.955-2.311,3.838-2.311
			c2.425,0,3.79,1.541,3.79,3.659v7.511H248.68z"/>
		<path fill="#76A2B6" stroke="#76A2B6" stroke-width="0.5468" stroke-miterlimit="10" d="M262.431,73.67
			c-1.036,0.385-2.378,0.6-3.483,0.6c-3.979,0-5.463-2.44-5.463-5.714c0-3.338,2.025-5.714,5.062-5.714
			c3.39,0,4.778,2.482,4.778,5.414v0.685h-8.216c0,2.311,1.365,4.173,3.955,4.173c1.082,0,2.189-0.407,2.896-0.813L262.431,73.67z
			 M261.701,67.785c0-1.904-0.848-3.788-3.061-3.788c-2.189,0-3.531,1.99-3.531,3.788H261.701z"/>
		<path fill="#76A2B6" stroke="#76A2B6" stroke-width="0.5468" stroke-miterlimit="10" d="M266.058,72.428
			c0.896,0.407,1.743,0.685,2.896,0.685c1.412,0,2.66-0.706,2.66-1.947c0-2.589-5.768-2.183-5.768-5.35
			c0-2.162,1.93-2.975,3.908-2.975c0.636,0,1.906,0.128,2.966,0.492l-0.376,1.177c-0.777-0.321-1.602-0.514-2.426-0.514
			c-1.529,0-2.59,0.428-2.59,1.819c0,2.033,5.91,1.776,5.91,5.35c0,2.311-2.378,3.104-4.191,3.104c-1.152,0-2.307-0.129-3.365-0.514
			L266.058,72.428z"/>
		<path fill="#76A2B6" stroke="#76A2B6" stroke-width="0.5468" stroke-miterlimit="10" d="M150.73,92.5h-0.047
			c-0.659,1.305-2.331,2.012-3.813,2.012c-3.413,0-3.955-2.098-3.955-3.082c0-3.659,4.284-3.83,7.392-3.83h0.282v-0.557
			c0-1.861,0.447-2.803-1.553-2.803c-1.248,0-2.425,0.256-3.531,0.898v-1.306c0.918-0.407,2.472-0.749,3.531-0.749
			c2.966,0,3.037,1.22,3.037,4.065v4.815c0,0.877,0,1.541,0.118,2.289h-1.459V92.5z M150.588,88.755h-0.423
			c-2.566,0-5.626,0.235-5.626,2.632c0,1.434,1.13,1.969,2.496,1.969c3.484,0,3.554-2.76,3.554-3.938V88.755z"/>
		<path fill="#76A2B6" stroke="#76A2B6" stroke-width="0.5468" stroke-miterlimit="10" d="M156.193,85.908
			c0-0.834,0-1.69-0.094-2.567h1.436v1.947h0.047c0.495-0.984,1.389-2.204,3.884-2.204c2.966,0,4.096,1.797,4.096,4.194v6.976
			h-1.483v-6.633c0-2.055-0.801-3.381-2.849-3.381c-2.707,0-3.555,2.16-3.555,3.98v6.033h-1.483V85.908z"/>
		<path fill="#76A2B6" stroke="#76A2B6" stroke-width="0.5468" stroke-miterlimit="10" d="M179.383,94.254l-1.483-1.732h-0.047
			c-0.8,1.391-2.024,1.99-3.742,1.99c-3.296,0-4.944-2.482-4.944-5.715c0-3.316,1.413-5.713,4.944-5.713
			c2.354,0,3.53,1.562,3.742,2.098h0.047l0.047-6.335l1.436-1.498V94.254z M174.346,93.355c2.636,0,3.554-2.567,3.554-4.559
			c0-1.989-0.918-4.557-3.554-4.557c-2.825,0-3.555,2.438-3.555,4.557C170.791,90.916,171.521,93.355,174.346,93.355z"/>
		<path fill="#76A2B6" stroke="#76A2B6" stroke-width="0.5468" stroke-miterlimit="10" d="M185.766,78.633l1.482-1.284v7.833h0.047
			c0.212-0.535,1.389-2.098,3.744-2.098c3.53,0,4.942,2.396,4.942,5.713c0,3.232-1.647,5.715-4.942,5.715
			c-1.719,0-2.943-0.6-3.744-1.99h-0.047l-1.482,1.732V78.633z M190.803,84.24c-2.707,0-3.555,2.567-3.555,4.557
			c0,1.991,0.918,4.559,3.555,4.559c2.825,0,3.555-2.439,3.555-4.559C194.357,86.679,193.628,84.24,190.803,84.24z"/>
		<path fill="#76A2B6" stroke="#76A2B6" stroke-width="0.5468" stroke-miterlimit="10" d="M207.637,93.912
			c-1.036,0.385-2.378,0.6-3.484,0.6c-3.979,0-5.461-2.439-5.461-5.715c0-3.338,2.024-5.713,5.061-5.713
			c3.391,0,4.779,2.482,4.779,5.414v0.686h-8.216c0,2.311,1.365,4.172,3.954,4.172c1.084,0,2.19-0.406,2.896-0.812L207.637,93.912z
			 M206.906,88.027c0-1.904-0.847-3.787-3.061-3.787c-2.188,0-3.53,1.989-3.53,3.787H206.906z"/>
		<path fill="#76A2B6" stroke="#76A2B6" stroke-width="0.5468" stroke-miterlimit="10" d="M211.947,78.633l1.482-1.284v16.905
			h-1.482V78.633z"/>
		<path fill="#76A2B6" stroke="#76A2B6" stroke-width="0.5468" stroke-miterlimit="10" d="M217.762,78.633l1.483-1.284v16.905
			h-1.483V78.633z"/>
		<path fill="#76A2B6" stroke="#76A2B6" stroke-width="0.5468" stroke-miterlimit="10" d="M222.895,92.671
			c0.895,0.407,1.742,0.685,2.896,0.685c1.412,0,2.659-0.706,2.659-1.947c0-2.59-5.768-2.183-5.768-5.35
			c0-2.162,1.932-2.975,3.909-2.975c0.636,0,1.906,0.129,2.966,0.492l-0.377,1.177c-0.777-0.321-1.601-0.513-2.425-0.513
			c-1.53,0-2.589,0.428-2.589,1.818c0,2.033,5.908,1.775,5.908,5.35c0,2.311-2.377,3.104-4.19,3.104
			c-1.153,0-2.306-0.129-3.366-0.514L222.895,92.671z"/>
	</g>
</g>
</svg>
